PathFileType	4	(X/Y/Z)	OpenSim_Sub01_CSStiffKnee_Magnet.trc
DataRate	CameraRate	NumFrames	NumMarkers	Units	OrigDataRate	OrigDataStartFrame	OrigNumFrames
100	100	20	8	m	100	673	5381
Frame#	Time	torso_imu_offset_imu	pelvis_imu_offset_imu	tibia_r_imu_offset_imu	femur_r_imu_offset_imu	tibia_l_imu_offset_imu	femur_l_imu_offset_imu	toes_r_imu_offset_imu	toes_l_imu_offset_imu
				X1	Y1	Z1	X2	Y2	Z2	X3	Y3	Z3	X4	Y4	Z4	X5	Y5	Z5	X6	Y6	Z6	X7	Y7	Z7	X8		Y8	Z8	

673	6.72000000	-0.90278063	-0.18962287	0.19095191	-0.66224524	0.26682029	-0.63090391	-0.49681825	-0.63602224	-0.16209724	-0.79769807	-0.29368440	-0.04958879	-0.53214240	0.55961290	0.29565360	-0.40174061	-0.02985965	0.35968879	-0.71284077	-0.16218605	-0.29125264	-0.72722403	-0.19538805	-0.37399455
674	6.73000000	-0.90132369	-0.19299768	0.19299569	-0.65991632	0.26686020	-0.63496623	-0.52202207	-0.61187684	-0.15547987	-0.80272326	-0.28509508	-0.04451598	-0.52778604	0.56437265	0.29688303	-0.39929452	-0.02551172	0.35875660	-0.70433440	-0.15050394	-0.29414065	-0.72935951	-0.19246125	-0.37406427
675	6.74000000	-0.90113566	-0.19792328	0.19490270	-0.66006940	0.26808057	-0.63770329	-0.54683297	-0.59137070	-0.14971868	-0.80482354	-0.27778576	-0.03828530	-0.52416352	0.56969603	0.29859000	-0.39475892	-0.02370686	0.35640996	-0.70011794	-0.13700273	-0.30112396	-0.73307696	-0.18967176	-0.37645745
676	6.75000000	-0.90194573	-0.20334849	0.19614798	-0.66156345	0.26947236	-0.63868517	-0.57037745	-0.57324421	-0.14523412	-0.80461391	-0.27205639	-0.03247171	-0.52093482	0.57513448	0.30080816	-0.38897477	-0.02336582	0.35468787	-0.69903860	-0.12179497	-0.31309341	-0.73869681	-0.18631810	-0.37928303
677	6.76000000	-0.90303865	-0.20776169	0.19616973	-0.66163740	0.26892434	-0.63824259	-0.59168395	-0.55291739	-0.14095630	-0.80419899	-0.26746132	-0.02918194	-0.51725340	0.57999558	0.30394026	-0.38426128	-0.02162156	0.35648804	-0.69928835	-0.10669435	-0.32882748	-0.74522820	-0.18185679	-0.37852552
678	6.77000000	-0.90370743	-0.21023144	0.19480124	-0.65901063	0.26562207	-0.63694230	-0.61053178	-0.52819293	-0.13630270	-0.80489673	-0.26368609	-0.02911978	-0.51253437	0.58387757	0.30781417	-0.38172268	-0.01697276	0.36270048	-0.69913538	-0.09315446	-0.34721602	-0.75209802	-0.17658450	-0.37258150
679	6.78000000	-0.90327625	-0.21113408	0.19275844	-0.65575245	0.26167641	-0.63585584	-0.62837841	-0.50228571	-0.13182115	-0.80622684	-0.26073051	-0.02984338	-0.50679140	0.58703424	0.31096434	-0.37970968	-0.01101704	0.36971079	-0.69703681	-0.08177631	-0.36745829	-0.75970313	-0.17266789	-0.36529071
680	6.79000000	-0.90124775	-0.21104810	0.19086306	-0.65417221	0.25933169	-0.63599757	-0.64669167	-0.47883159	-0.12815496	-0.80750261	-0.25856514	-0.02873885	-0.50014629	0.58989471	0.31189564	-0.37638711	-0.00568200	0.37374071	-0.69159484	-0.07287670	-0.38876219	-0.76841944	-0.17219847	-0.36074266
681	6.80000000	-0.89892340	-0.21081215	0.18979614	-0.65437790	0.25812397	-0.63708686	-0.66470233	-0.45825284	-0.12535409	-0.80841857	-0.25641951	-0.02581005	-0.49300079	0.59378277	0.31061403	-0.37184716	-0.00197331	0.37561228	-0.68264572	-0.06502956	-0.40999251	-0.77705156	-0.17388000	-0.35800200
682	6.81000000	-0.89865872	-0.21141520	0.19015196	-0.65518091	0.25599664	-0.63808194	-0.68032681	-0.43907718	-0.12311845	-0.80889477	-0.25309083	-0.02260335	-0.48592156	0.60054163	0.30801032	-0.36731680	-0.00034930	0.37885140	-0.67075752	-0.05578818	-0.42981316	-0.78348392	-0.17442528	-0.35317776
683	6.82000000	-0.90129691	-0.21318787	0.19173573	-0.65581284	0.25194079	-0.63854299	-0.69261350	-0.42009393	-0.12113723	-0.80898305	-0.24838445	-0.02028628	-0.47941482	0.61025210	0.30483653	-0.36356658	-0.00052535	0.38488832	-0.65731831	-0.04429377	-0.44721874	-0.78702517	-0.17214539	-0.34420136
684	6.83000000	-0.90427642	-0.21498749	0.19259436	-0.65648025	0.24733114	-0.63939516	-0.70317440	-0.40073072	-0.11908588	-0.80902291	-0.24436771	-0.01913668	-0.47384718	0.61904765	0.30150947	-0.36031597	-0.00057498	0.39039931	-0.64552471	-0.03326021	-0.46194747	-0.79018829	-0.16897514	-0.33315578
685	6.84000000	-0.90487966	-0.21557373	0.19082348	-0.65750465	0.24368645	-0.64159847	-0.71372181	-0.38068859	-0.11670583	-0.80932655	-0.24316406	-0.01916126	-0.46946127	0.62310037	0.29842506	-0.35715440	0.00138921	0.39185416	-0.63847156	-0.02553528	-0.47382149	-0.79559088	-0.16717395	-0.32240143
686	6.85000000	-0.90353426	-0.21475609	0.18747747	-0.65903211	0.24068254	-0.64456624	-0.72342215	-0.36159981	-0.11443887	-0.80952270	-0.24431631	-0.01881050	-0.46541471	0.62449537	0.29623161	-0.35379745	0.00455786	0.39023120	-0.63567671	-0.02035890	-0.48249096	-0.80245447	-0.16729087	-0.31136373
687	6.86000000	-0.90251870	-0.21296319	0.18534956	-0.66110454	0.23691189	-0.64680191	-0.72994587	-0.34623192	-0.11313765	-0.80883954	-0.24584776	-0.01562526	-0.46022817	0.62879251	0.29572179	-0.35003563	0.00653860	0.38916077	-0.63455135	-0.01485112	-0.48750774	-0.80800385	-0.16886601	-0.29774392
688	6.87000000	-0.90315992	-0.21057894	0.18584687	-0.66360823	0.23177239	-0.64734718	-0.73220809	-0.33650788	-0.11317262	-0.80707111	-0.24637984	-0.00892468	-0.45307103	0.63871609	0.29672077	-0.34578401	0.00659298	0.39064980	-0.63324801	-0.00791778	-0.48910785	-0.81087750	-0.17143591	-0.28075723
689	6.88000000	-0.90460820	-0.20786970	0.18723362	-0.66608542	0.22649019	-0.64647101	-0.73194424	-0.33243353	-0.11382643	-0.80528555	-0.24591233	-0.00202206	-0.44457852	0.65056330	0.29689085	-0.34123339	0.00771866	0.39300652	-0.63163396	-0.00251050	-0.48905656	-0.81292583	-0.17455826	-0.26304678
690	6.89000000	-0.90581271	-0.20503761	0.18746744	-0.66803423	0.22238669	-0.64462933	-0.73112783	-0.33362027	-0.11422879	-0.80460092	-0.24464432	0.00163125	-0.43557053	0.66012574	0.29389515	-0.33667116	0.01302219	0.39425706	-0.62999955	-0.00175039	-0.48892219	-0.81618240	-0.17779086	-0.24740936
691	6.90000000	-0.90668657	-0.20178608	0.18573151	-0.66897855	0.21921264	-0.64249447	-0.73025044	-0.33828573	-0.11344992	-0.80487115	-0.24290725	0.00273758	-0.42672530	0.66695292	0.28842632	-0.33299666	0.02151520	0.39468172	-0.63060747	-0.00485712	-0.48610340	-0.82008491	-0.18066284	-0.23343965
692	6.91000000	-0.90771096	-0.19752691	0.18193513	-0.66845992	0.21579401	-0.64086499	-0.72892832	-0.34383446	-0.11052733	-0.80520641	-0.24111188	0.00444217	-0.41863472	0.67280861	0.28295910	-0.33146469	0.02979973	0.39588521	-0.63687302	-0.00875971	-0.47555346	-0.82254536	-0.18268926	-0.21884786
